<mxfile host="65bd71144e">
    <diagram id="c6q2HIC8ceXFm5oDAOu4" name="Page-1">
        <mxGraphModel dx="643" dy="123" grid="1" gridSize="10" guides="1" tooltips="1" connect="1" arrows="1" fold="1" page="0" pageScale="1" pageWidth="850" pageHeight="1100" math="0" shadow="0">
            <root>
                <mxCell id="0"/>
                <mxCell id="1" parent="0"/>
                <mxCell id="8" value="&lt;div style=&quot;color: rgb(246, 250, 253); background-color: rgb(8, 22, 32); font-family: Consolas, Consolas, &amp;quot;Courier New&amp;quot;, monospace; font-size: 14px; line-height: 19px;&quot;&gt;&lt;div style=&quot;line-height: 19px;&quot;&gt;&lt;span style=&quot;color: #00b4d6;font-style: italic;&quot;&gt;class&lt;/span&gt; &lt;span style=&quot;color: #f4e286;&quot;&gt;ForeignSocket&lt;/span&gt;&lt;/div&gt;&lt;/div&gt;" style="swimlane;fontStyle=0;childLayout=stackLayout;horizontal=1;startSize=30;horizontalStack=0;resizeParent=1;resizeParentMax=0;resizeLast=0;collapsible=1;marginBottom=0;whiteSpace=wrap;html=1;" vertex="1" parent="1">
                    <mxGeometry x="-20" y="70" width="370" height="150" as="geometry"/>
                </mxCell>
                <mxCell id="27" value="&lt;span style=&quot;background-color: rgb(8, 22, 32); font-family: Consolas, Consolas, &amp;quot;Courier New&amp;quot;, monospace; font-size: 14px; color: rgb(194, 142, 96); font-style: italic;&quot;&gt;private&lt;/span&gt;&lt;span style=&quot;background-color: rgb(8, 22, 32); color: rgb(246, 250, 253); font-family: Consolas, Consolas, &amp;quot;Courier New&amp;quot;, monospace; font-size: 14px;&quot;&gt; &lt;/span&gt;&lt;span style=&quot;background-color: rgb(8, 22, 32); font-family: Consolas, Consolas, &amp;quot;Courier New&amp;quot;, monospace; font-size: 14px; color: rgb(178, 168, 180);&quot;&gt;voltage&lt;/span&gt;&lt;span style=&quot;background-color: rgb(8, 22, 32); font-family: Consolas, Consolas, &amp;quot;Courier New&amp;quot;, monospace; font-size: 14px; color: rgb(194, 142, 96);&quot;&gt;:&lt;/span&gt;&lt;span style=&quot;background-color: rgb(8, 22, 32); color: rgb(246, 250, 253); font-family: Consolas, Consolas, &amp;quot;Courier New&amp;quot;, monospace; font-size: 14px;&quot;&gt; &lt;/span&gt;&lt;span style=&quot;background-color: rgb(8, 22, 32); font-family: Consolas, Consolas, &amp;quot;Courier New&amp;quot;, monospace; font-size: 14px; color: rgb(244, 226, 134);&quot;&gt;number&lt;/span&gt;&lt;span style=&quot;background-color: rgb(8, 22, 32); font-family: Consolas, Consolas, &amp;quot;Courier New&amp;quot;, monospace; font-size: 14px; color: rgb(244, 226, 134);&quot;&gt;;&lt;/span&gt;" style="text;strokeColor=default;fillColor=none;align=left;verticalAlign=middle;spacingLeft=4;spacingRight=4;overflow=hidden;points=[[0,0.5],[1,0.5]];portConstraint=eastwest;rotatable=0;whiteSpace=wrap;html=1;strokeWidth=1;" vertex="1" parent="8">
                    <mxGeometry y="30" width="370" height="40" as="geometry"/>
                </mxCell>
                <mxCell id="9" value="&lt;span style=&quot;background-color: rgb(8, 22, 32); font-family: Consolas, Consolas, &amp;quot;Courier New&amp;quot;, monospace; font-size: 14px; color: rgb(194, 142, 96); font-style: italic;&quot;&gt;private&lt;/span&gt;&lt;span style=&quot;background-color: rgb(8, 22, 32); color: rgb(246, 250, 253); font-family: Consolas, Consolas, &amp;quot;Courier New&amp;quot;, monospace; font-size: 14px;&quot;&gt; &lt;/span&gt;&lt;span style=&quot;background-color: rgb(8, 22, 32); font-family: Consolas, Consolas, &amp;quot;Courier New&amp;quot;, monospace; font-size: 14px; color: rgb(178, 168, 180);&quot;&gt;form&lt;/span&gt;&lt;span style=&quot;background-color: rgb(8, 22, 32); font-family: Consolas, Consolas, &amp;quot;Courier New&amp;quot;, monospace; font-size: 14px; color: rgb(194, 142, 96);&quot;&gt;:&lt;/span&gt;&lt;span style=&quot;background-color: rgb(8, 22, 32); color: rgb(246, 250, 253); font-family: Consolas, Consolas, &amp;quot;Courier New&amp;quot;, monospace; font-size: 14px;&quot;&gt;&amp;nbsp;&lt;/span&gt;&lt;span style=&quot;color: rgb(244, 226, 134); background-color: rgb(8, 22, 32); font-family: Consolas, Consolas, &amp;quot;Courier New&amp;quot;, monospace; font-size: 14px;&quot;&gt;string&lt;/span&gt;&lt;span style=&quot;background-color: rgb(8, 22, 32); color: rgb(244, 226, 134); font-family: Consolas, Consolas, &amp;quot;Courier New&amp;quot;, monospace; font-size: 14px;&quot;&gt;;&lt;/span&gt;" style="text;strokeColor=default;fillColor=none;align=left;verticalAlign=middle;spacingLeft=4;spacingRight=4;overflow=hidden;points=[[0,0.5],[1,0.5]];portConstraint=eastwest;rotatable=0;whiteSpace=wrap;html=1;strokeWidth=1;" vertex="1" parent="8">
                    <mxGeometry y="70" width="370" height="40" as="geometry"/>
                </mxCell>
                <mxCell id="10" value="&lt;span style=&quot;background-color: rgb(8, 22, 32); font-family: Consolas, Consolas, &amp;quot;Courier New&amp;quot;, monospace; font-size: 14px; color: rgb(244, 226, 134);&quot;&gt;isConectable(&lt;/span&gt;&lt;span style=&quot;background-color: rgb(8, 22, 32); font-family: Consolas, Consolas, &amp;quot;Courier New&amp;quot;, monospace; font-size: 14px; color: rgb(152, 212, 220);&quot;&gt;outlet&lt;/span&gt;&lt;span style=&quot;background-color: rgb(8, 22, 32); font-family: Consolas, Consolas, &amp;quot;Courier New&amp;quot;, monospace; font-size: 14px; color: rgb(194, 142, 96);&quot;&gt;:&lt;/span&gt;&lt;span style=&quot;background-color: rgb(8, 22, 32); color: rgb(246, 250, 253); font-family: Consolas, Consolas, &amp;quot;Courier New&amp;quot;, monospace; font-size: 14px;&quot;&gt; &lt;/span&gt;&lt;span style=&quot;background-color: rgb(8, 22, 32); font-family: Consolas, Consolas, &amp;quot;Courier New&amp;quot;, monospace; font-size: 14px; color: rgb(210, 216, 216);&quot;&gt;ForeignOutlet&lt;/span&gt;&lt;span style=&quot;background-color: rgb(8, 22, 32); font-family: Consolas, Consolas, &amp;quot;Courier New&amp;quot;, monospace; font-size: 14px; color: rgb(244, 226, 134);&quot;&gt;): boolean;&lt;/span&gt;" style="text;strokeColor=none;fillColor=none;align=left;verticalAlign=middle;spacingLeft=4;spacingRight=4;overflow=hidden;points=[[0,0.5],[1,0.5]];portConstraint=eastwest;rotatable=0;whiteSpace=wrap;html=1;" vertex="1" parent="8">
                    <mxGeometry y="110" width="370" height="40" as="geometry"/>
                </mxCell>
                <mxCell id="28" value="&lt;div style=&quot;background-color: rgb(8, 22, 32); font-family: Consolas, Consolas, &amp;quot;Courier New&amp;quot;, monospace; font-size: 14px; line-height: 19px;&quot;&gt;&lt;div style=&quot;line-height: 19px;&quot;&gt;&lt;span style=&quot;color: rgb(0, 180, 214); font-style: italic;&quot;&gt;class&lt;/span&gt;&lt;font color=&quot;#f6fafd&quot;&gt;&amp;nbsp;&lt;/font&gt;&lt;font color=&quot;#f4e286&quot;&gt;ForeignOutlet&lt;/font&gt;&lt;/div&gt;&lt;/div&gt;" style="swimlane;fontStyle=0;childLayout=stackLayout;horizontal=1;startSize=30;horizontalStack=0;resizeParent=1;resizeParentMax=0;resizeLast=0;collapsible=1;marginBottom=0;whiteSpace=wrap;html=1;" vertex="1" parent="1">
                    <mxGeometry x="460" y="70" width="370" height="190" as="geometry"/>
                </mxCell>
                <mxCell id="29" value="&lt;span style=&quot;background-color: rgb(8, 22, 32); font-family: Consolas, Consolas, &amp;quot;Courier New&amp;quot;, monospace; font-size: 14px; color: rgb(194, 142, 96); font-style: italic;&quot;&gt;private&lt;/span&gt;&lt;span style=&quot;background-color: rgb(8, 22, 32); color: rgb(246, 250, 253); font-family: Consolas, Consolas, &amp;quot;Courier New&amp;quot;, monospace; font-size: 14px;&quot;&gt; &lt;/span&gt;&lt;span style=&quot;background-color: rgb(8, 22, 32); font-family: Consolas, Consolas, &amp;quot;Courier New&amp;quot;, monospace; font-size: 14px; color: rgb(178, 168, 180);&quot;&gt;voltage&lt;/span&gt;&lt;span style=&quot;background-color: rgb(8, 22, 32); font-family: Consolas, Consolas, &amp;quot;Courier New&amp;quot;, monospace; font-size: 14px; color: rgb(194, 142, 96);&quot;&gt;:&lt;/span&gt;&lt;span style=&quot;background-color: rgb(8, 22, 32); color: rgb(246, 250, 253); font-family: Consolas, Consolas, &amp;quot;Courier New&amp;quot;, monospace; font-size: 14px;&quot;&gt; &lt;/span&gt;&lt;span style=&quot;background-color: rgb(8, 22, 32); font-family: Consolas, Consolas, &amp;quot;Courier New&amp;quot;, monospace; font-size: 14px; color: rgb(244, 226, 134);&quot;&gt;number&lt;/span&gt;&lt;span style=&quot;background-color: rgb(8, 22, 32); font-family: Consolas, Consolas, &amp;quot;Courier New&amp;quot;, monospace; font-size: 14px; color: rgb(244, 226, 134);&quot;&gt;;&lt;/span&gt;" style="text;strokeColor=default;fillColor=none;align=left;verticalAlign=middle;spacingLeft=4;spacingRight=4;overflow=hidden;points=[[0,0.5],[1,0.5]];portConstraint=eastwest;rotatable=0;whiteSpace=wrap;html=1;strokeWidth=1;" vertex="1" parent="28">
                    <mxGeometry y="30" width="370" height="40" as="geometry"/>
                </mxCell>
                <mxCell id="30" value="&lt;span style=&quot;background-color: rgb(8, 22, 32); font-family: Consolas, Consolas, &amp;quot;Courier New&amp;quot;, monospace; font-size: 14px; color: rgb(194, 142, 96); font-style: italic;&quot;&gt;private&lt;/span&gt;&lt;span style=&quot;background-color: rgb(8, 22, 32); color: rgb(246, 250, 253); font-family: Consolas, Consolas, &amp;quot;Courier New&amp;quot;, monospace; font-size: 14px;&quot;&gt; &lt;/span&gt;&lt;span style=&quot;background-color: rgb(8, 22, 32); font-family: Consolas, Consolas, &amp;quot;Courier New&amp;quot;, monospace; font-size: 14px; color: rgb(178, 168, 180);&quot;&gt;form&lt;/span&gt;&lt;span style=&quot;background-color: rgb(8, 22, 32); font-family: Consolas, Consolas, &amp;quot;Courier New&amp;quot;, monospace; font-size: 14px; color: rgb(194, 142, 96);&quot;&gt;:&lt;/span&gt;&lt;span style=&quot;background-color: rgb(8, 22, 32); color: rgb(246, 250, 253); font-family: Consolas, Consolas, &amp;quot;Courier New&amp;quot;, monospace; font-size: 14px;&quot;&gt;&amp;nbsp;&lt;/span&gt;&lt;span style=&quot;color: rgb(244, 226, 134); background-color: rgb(8, 22, 32); font-family: Consolas, Consolas, &amp;quot;Courier New&amp;quot;, monospace; font-size: 14px;&quot;&gt;string&lt;/span&gt;&lt;span style=&quot;background-color: rgb(8, 22, 32); color: rgb(244, 226, 134); font-family: Consolas, Consolas, &amp;quot;Courier New&amp;quot;, monospace; font-size: 14px;&quot;&gt;;&lt;/span&gt;" style="text;strokeColor=default;fillColor=none;align=left;verticalAlign=middle;spacingLeft=4;spacingRight=4;overflow=hidden;points=[[0,0.5],[1,0.5]];portConstraint=eastwest;rotatable=0;whiteSpace=wrap;html=1;strokeWidth=1;" vertex="1" parent="28">
                    <mxGeometry y="70" width="370" height="40" as="geometry"/>
                </mxCell>
                <mxCell id="32" value="&lt;font face=&quot;Consolas, Consolas, Courier New, monospace&quot; color=&quot;#f4e286&quot;&gt;&lt;span style=&quot;font-size: 14px; background-color: rgb(8, 22, 32);&quot;&gt;getVoltage()&lt;/span&gt;&lt;/font&gt;&lt;span style=&quot;color: rgb(244, 226, 134); font-family: Consolas, Consolas, &amp;quot;Courier New&amp;quot;, monospace; font-size: 14px; background-color: rgb(8, 22, 32);&quot;&gt;: number&amp;nbsp;&lt;/span&gt;&lt;font face=&quot;Consolas, Consolas, Courier New, monospace&quot; color=&quot;#f4e286&quot;&gt;&lt;span style=&quot;font-size: 14px; background-color: rgb(8, 22, 32);&quot;&gt;{...}&lt;/span&gt;&lt;/font&gt;" style="text;strokeColor=none;fillColor=none;align=left;verticalAlign=middle;spacingLeft=4;spacingRight=4;overflow=hidden;points=[[0,0.5],[1,0.5]];portConstraint=eastwest;rotatable=0;whiteSpace=wrap;html=1;" vertex="1" parent="28">
                    <mxGeometry y="110" width="370" height="40" as="geometry"/>
                </mxCell>
                <mxCell id="31" value="&lt;font face=&quot;Consolas, Consolas, Courier New, monospace&quot; color=&quot;#f4e286&quot;&gt;&lt;span style=&quot;font-size: 14px; background-color: rgb(8, 22, 32);&quot;&gt;getForm()&lt;/span&gt;&lt;/font&gt;&lt;span style=&quot;color: rgb(244, 226, 134); font-family: Consolas, Consolas, &amp;quot;Courier New&amp;quot;, monospace; font-size: 14px; background-color: rgb(8, 22, 32);&quot;&gt;: string&amp;nbsp;&lt;/span&gt;&lt;font face=&quot;Consolas, Consolas, Courier New, monospace&quot; color=&quot;#f4e286&quot;&gt;&lt;span style=&quot;font-size: 14px; background-color: rgb(8, 22, 32);&quot;&gt;{...}&lt;/span&gt;&lt;/font&gt;" style="text;strokeColor=none;fillColor=none;align=left;verticalAlign=middle;spacingLeft=4;spacingRight=4;overflow=hidden;points=[[0,0.5],[1,0.5]];portConstraint=eastwest;rotatable=0;whiteSpace=wrap;html=1;" vertex="1" parent="28">
                    <mxGeometry y="150" width="370" height="40" as="geometry"/>
                </mxCell>
                <mxCell id="33" value="&lt;div style=&quot;background-color: rgb(8, 22, 32); font-family: Consolas, Consolas, &amp;quot;Courier New&amp;quot;, monospace; font-size: 14px; line-height: 19px;&quot;&gt;&lt;div style=&quot;line-height: 19px;&quot;&gt;&lt;span style=&quot;color: rgb(0, 180, 214); font-style: italic;&quot;&gt;class&lt;/span&gt;&lt;font color=&quot;#f6fafd&quot;&gt;&amp;nbsp;&lt;/font&gt;&lt;font color=&quot;#f4e286&quot;&gt;MyOutlet&lt;/font&gt;&lt;/div&gt;&lt;/div&gt;" style="swimlane;fontStyle=0;childLayout=stackLayout;horizontal=1;startSize=30;horizontalStack=0;resizeParent=1;resizeParentMax=0;resizeLast=0;collapsible=1;marginBottom=0;whiteSpace=wrap;html=1;" vertex="1" parent="1">
                    <mxGeometry x="-90" y="340" width="370" height="190" as="geometry"/>
                </mxCell>
                <mxCell id="34" value="&lt;span style=&quot;background-color: rgb(8, 22, 32); font-family: Consolas, Consolas, &amp;quot;Courier New&amp;quot;, monospace; font-size: 14px; color: rgb(194, 142, 96); font-style: italic;&quot;&gt;private&lt;/span&gt;&lt;span style=&quot;background-color: rgb(8, 22, 32); color: rgb(246, 250, 253); font-family: Consolas, Consolas, &amp;quot;Courier New&amp;quot;, monospace; font-size: 14px;&quot;&gt; &lt;/span&gt;&lt;span style=&quot;background-color: rgb(8, 22, 32); font-family: Consolas, Consolas, &amp;quot;Courier New&amp;quot;, monospace; font-size: 14px; color: rgb(178, 168, 180);&quot;&gt;voltage&lt;/span&gt;&lt;span style=&quot;background-color: rgb(8, 22, 32); font-family: Consolas, Consolas, &amp;quot;Courier New&amp;quot;, monospace; font-size: 14px; color: rgb(194, 142, 96);&quot;&gt;:&lt;/span&gt;&lt;span style=&quot;background-color: rgb(8, 22, 32); color: rgb(246, 250, 253); font-family: Consolas, Consolas, &amp;quot;Courier New&amp;quot;, monospace; font-size: 14px;&quot;&gt; &lt;/span&gt;&lt;span style=&quot;background-color: rgb(8, 22, 32); font-family: Consolas, Consolas, &amp;quot;Courier New&amp;quot;, monospace; font-size: 14px; color: rgb(244, 226, 134);&quot;&gt;number&lt;/span&gt;&lt;span style=&quot;background-color: rgb(8, 22, 32); font-family: Consolas, Consolas, &amp;quot;Courier New&amp;quot;, monospace; font-size: 14px; color: rgb(244, 226, 134);&quot;&gt;;&lt;/span&gt;" style="text;strokeColor=default;fillColor=none;align=left;verticalAlign=middle;spacingLeft=4;spacingRight=4;overflow=hidden;points=[[0,0.5],[1,0.5]];portConstraint=eastwest;rotatable=0;whiteSpace=wrap;html=1;strokeWidth=1;" vertex="1" parent="33">
                    <mxGeometry y="30" width="370" height="40" as="geometry"/>
                </mxCell>
                <mxCell id="35" value="&lt;span style=&quot;background-color: rgb(8, 22, 32); font-family: Consolas, Consolas, &amp;quot;Courier New&amp;quot;, monospace; font-size: 14px; color: rgb(194, 142, 96); font-style: italic;&quot;&gt;private&lt;/span&gt;&lt;span style=&quot;background-color: rgb(8, 22, 32); color: rgb(246, 250, 253); font-family: Consolas, Consolas, &amp;quot;Courier New&amp;quot;, monospace; font-size: 14px;&quot;&gt; &lt;/span&gt;&lt;span style=&quot;background-color: rgb(8, 22, 32); font-family: Consolas, Consolas, &amp;quot;Courier New&amp;quot;, monospace; font-size: 14px; color: rgb(178, 168, 180);&quot;&gt;form&lt;/span&gt;&lt;span style=&quot;background-color: rgb(8, 22, 32); font-family: Consolas, Consolas, &amp;quot;Courier New&amp;quot;, monospace; font-size: 14px; color: rgb(194, 142, 96);&quot;&gt;:&lt;/span&gt;&lt;span style=&quot;background-color: rgb(8, 22, 32); color: rgb(246, 250, 253); font-family: Consolas, Consolas, &amp;quot;Courier New&amp;quot;, monospace; font-size: 14px;&quot;&gt;&amp;nbsp;&lt;/span&gt;&lt;span style=&quot;color: rgb(244, 226, 134); background-color: rgb(8, 22, 32); font-family: Consolas, Consolas, &amp;quot;Courier New&amp;quot;, monospace; font-size: 14px;&quot;&gt;string&lt;/span&gt;&lt;span style=&quot;background-color: rgb(8, 22, 32); color: rgb(244, 226, 134); font-family: Consolas, Consolas, &amp;quot;Courier New&amp;quot;, monospace; font-size: 14px;&quot;&gt;;&lt;/span&gt;" style="text;strokeColor=default;fillColor=none;align=left;verticalAlign=middle;spacingLeft=4;spacingRight=4;overflow=hidden;points=[[0,0.5],[1,0.5]];portConstraint=eastwest;rotatable=0;whiteSpace=wrap;html=1;strokeWidth=1;" vertex="1" parent="33">
                    <mxGeometry y="70" width="370" height="40" as="geometry"/>
                </mxCell>
                <mxCell id="36" value="&lt;font face=&quot;Consolas, Consolas, Courier New, monospace&quot; color=&quot;#f4e286&quot;&gt;&lt;span style=&quot;font-size: 14px; background-color: rgb(8, 22, 32);&quot;&gt;getMyVoltage()&lt;/span&gt;&lt;/font&gt;&lt;span style=&quot;color: rgb(244, 226, 134); font-family: Consolas, Consolas, &amp;quot;Courier New&amp;quot;, monospace; font-size: 14px; background-color: rgb(8, 22, 32);&quot;&gt;: number&amp;nbsp;&lt;/span&gt;&lt;font face=&quot;Consolas, Consolas, Courier New, monospace&quot; color=&quot;#f4e286&quot;&gt;&lt;span style=&quot;font-size: 14px; background-color: rgb(8, 22, 32);&quot;&gt;{...}&lt;/span&gt;&lt;/font&gt;" style="text;strokeColor=none;fillColor=none;align=left;verticalAlign=middle;spacingLeft=4;spacingRight=4;overflow=hidden;points=[[0,0.5],[1,0.5]];portConstraint=eastwest;rotatable=0;whiteSpace=wrap;html=1;" vertex="1" parent="33">
                    <mxGeometry y="110" width="370" height="40" as="geometry"/>
                </mxCell>
                <mxCell id="37" value="&lt;font face=&quot;Consolas, Consolas, Courier New, monospace&quot; color=&quot;#f4e286&quot;&gt;&lt;span style=&quot;font-size: 14px; background-color: rgb(8, 22, 32);&quot;&gt;getMyForm()&lt;/span&gt;&lt;/font&gt;&lt;span style=&quot;color: rgb(244, 226, 134); font-family: Consolas, Consolas, &amp;quot;Courier New&amp;quot;, monospace; font-size: 14px; background-color: rgb(8, 22, 32);&quot;&gt;: string&amp;nbsp;&lt;/span&gt;&lt;font face=&quot;Consolas, Consolas, Courier New, monospace&quot; color=&quot;#f4e286&quot;&gt;&lt;span style=&quot;font-size: 14px; background-color: rgb(8, 22, 32);&quot;&gt;{...}&lt;/span&gt;&lt;/font&gt;" style="text;strokeColor=none;fillColor=none;align=left;verticalAlign=middle;spacingLeft=4;spacingRight=4;overflow=hidden;points=[[0,0.5],[1,0.5]];portConstraint=eastwest;rotatable=0;whiteSpace=wrap;html=1;" vertex="1" parent="33">
                    <mxGeometry y="150" width="370" height="40" as="geometry"/>
                </mxCell>
                <mxCell id="44" style="edgeStyle=none;html=1;exitX=0.5;exitY=0;exitDx=0;exitDy=0;strokeWidth=2;fontSize=11;endArrow=block;endFill=0;endSize=12;" edge="1" parent="1" source="38" target="28">
                    <mxGeometry relative="1" as="geometry"/>
                </mxCell>
                <mxCell id="38" value="&lt;div style=&quot;background-color: rgb(8, 22, 32); font-family: Consolas, Consolas, &amp;quot;Courier New&amp;quot;, monospace; font-size: 14px; line-height: 19px;&quot;&gt;&lt;div style=&quot;line-height: 19px;&quot;&gt;&lt;div style=&quot;color: rgb(246, 250, 253); line-height: 19px;&quot;&gt;&lt;span style=&quot;color: #00b4d6;font-style: italic;&quot;&gt;class&lt;/span&gt; &lt;span style=&quot;color: #f4e286;&quot;&gt;MyOutletAdapter&lt;/span&gt; &lt;span style=&quot;color: #c28e60;font-style: italic;&quot;&gt;extends&lt;/span&gt; &lt;span style=&quot;color: #ecd2b4;&quot;&gt;ForeignOutlet&lt;/span&gt;&lt;/div&gt;&lt;/div&gt;&lt;/div&gt;" style="swimlane;fontStyle=0;childLayout=stackLayout;horizontal=1;startSize=30;horizontalStack=0;resizeParent=1;resizeParentMax=0;resizeLast=0;collapsible=1;marginBottom=0;whiteSpace=wrap;html=1;" vertex="1" parent="1">
                    <mxGeometry x="410" y="330" width="470" height="160" as="geometry"/>
                </mxCell>
                <mxCell id="39" value="&lt;span style=&quot;background-color: rgb(8, 22, 32); color: rgb(246, 250, 253); font-family: Consolas, Consolas, &amp;quot;Courier New&amp;quot;, monospace; font-size: 14px;&quot;&gt;&amp;nbsp;&lt;/span&gt;&lt;span style=&quot;background-color: rgb(8, 22, 32); font-family: Consolas, Consolas, &amp;quot;Courier New&amp;quot;, monospace; font-size: 14px; color: rgb(194, 142, 96); font-style: italic;&quot;&gt;private&lt;/span&gt;&lt;span style=&quot;background-color: rgb(8, 22, 32); color: rgb(246, 250, 253); font-family: Consolas, Consolas, &amp;quot;Courier New&amp;quot;, monospace; font-size: 14px;&quot;&gt; &lt;/span&gt;&lt;span style=&quot;background-color: rgb(8, 22, 32); font-family: Consolas, Consolas, &amp;quot;Courier New&amp;quot;, monospace; font-size: 14px; color: rgb(178, 168, 180);&quot;&gt;outlet&lt;/span&gt;&lt;span style=&quot;background-color: rgb(8, 22, 32); font-family: Consolas, Consolas, &amp;quot;Courier New&amp;quot;, monospace; font-size: 14px; color: rgb(194, 142, 96);&quot;&gt;:&lt;/span&gt;&lt;span style=&quot;background-color: rgb(8, 22, 32); color: rgb(246, 250, 253); font-family: Consolas, Consolas, &amp;quot;Courier New&amp;quot;, monospace; font-size: 14px;&quot;&gt; &lt;/span&gt;&lt;span style=&quot;background-color: rgb(8, 22, 32); font-family: Consolas, Consolas, &amp;quot;Courier New&amp;quot;, monospace; font-size: 14px; color: rgb(210, 216, 216);&quot;&gt;MyOutlet&lt;/span&gt;&lt;span style=&quot;background-color: rgb(8, 22, 32); font-family: Consolas, Consolas, &amp;quot;Courier New&amp;quot;, monospace; font-size: 14px; color: rgb(244, 226, 134);&quot;&gt;;&lt;/span&gt;&lt;br&gt;" style="text;strokeColor=default;fillColor=none;align=left;verticalAlign=middle;spacingLeft=4;spacingRight=4;overflow=hidden;points=[[0,0.5],[1,0.5]];portConstraint=eastwest;rotatable=0;whiteSpace=wrap;html=1;strokeWidth=1;" vertex="1" parent="38">
                    <mxGeometry y="30" width="470" height="50" as="geometry"/>
                </mxCell>
                <mxCell id="41" value="&lt;font face=&quot;Consolas, Consolas, Courier New, monospace&quot; color=&quot;#f4e286&quot;&gt;&lt;span style=&quot;font-size: 14px; background-color: rgb(8, 22, 32);&quot;&gt;getVoltage(): number {...}&lt;/span&gt;&lt;/font&gt;" style="text;strokeColor=none;fillColor=none;align=left;verticalAlign=middle;spacingLeft=4;spacingRight=4;overflow=hidden;points=[[0,0.5],[1,0.5]];portConstraint=eastwest;rotatable=0;whiteSpace=wrap;html=1;" vertex="1" parent="38">
                    <mxGeometry y="80" width="470" height="40" as="geometry"/>
                </mxCell>
                <mxCell id="42" value="&lt;font face=&quot;Consolas, Consolas, Courier New, monospace&quot; color=&quot;#f4e286&quot;&gt;&lt;span style=&quot;font-size: 14px; background-color: rgb(8, 22, 32);&quot;&gt;getForm(): string {...}&lt;/span&gt;&lt;/font&gt;" style="text;strokeColor=none;fillColor=none;align=left;verticalAlign=middle;spacingLeft=4;spacingRight=4;overflow=hidden;points=[[0,0.5],[1,0.5]];portConstraint=eastwest;rotatable=0;whiteSpace=wrap;html=1;" vertex="1" parent="38">
                    <mxGeometry y="120" width="470" height="40" as="geometry"/>
                </mxCell>
                <mxCell id="43" style="edgeStyle=none;html=1;exitX=1;exitY=0.5;exitDx=0;exitDy=0;entryX=0;entryY=0.5;entryDx=0;entryDy=0;fontSize=11;strokeWidth=2;endArrow=open;endFill=0;endSize=12;" edge="1" parent="1" source="27" target="29">
                    <mxGeometry relative="1" as="geometry"/>
                </mxCell>
                <mxCell id="46" style="edgeStyle=none;html=1;exitX=0;exitY=0.5;exitDx=0;exitDy=0;strokeWidth=2;fontSize=11;endArrow=open;endFill=0;endSize=12;" edge="1" parent="1" source="39">
                    <mxGeometry relative="1" as="geometry">
                        <mxPoint x="280" y="385" as="targetPoint"/>
                    </mxGeometry>
                </mxCell>
            </root>
        </mxGraphModel>
    </diagram>
</mxfile>